<mxfile host="app.diagrams.net" agent="Mozilla/5.0 (Windows NT 10.0; Win64; x64) AppleWebKit/537.36 (KHTML, like Gecko) Chrome/133.0.0.0 Safari/537.36" version="26.0.16">
  <diagram name="Página-1" id="qIX7veVQd1s_rR6ofYTU">
    <mxGraphModel dx="1434" dy="746" grid="1" gridSize="10" guides="1" tooltips="1" connect="1" arrows="1" fold="1" page="1" pageScale="1" pageWidth="2910" pageHeight="1030" math="0" shadow="0">
      <root>
        <mxCell id="0" />
        <mxCell id="1" parent="0" />
        <mxCell id="JW_ZT9TwwhXl2gYUWcVb-1" value="Solicitudes de Servicios A3 y Autorizaciones AS" style="swimlane;html=1;childLayout=stackLayout;resizeParent=1;resizeParentMax=0;horizontal=1;startSize=20;horizontalStack=0;whiteSpace=wrap;" vertex="1" parent="1">
          <mxGeometry x="40" y="40" width="3080" height="910" as="geometry" />
        </mxCell>
        <mxCell id="JW_ZT9TwwhXl2gYUWcVb-2" value="ZonaSer Prestador" style="swimlane;html=1;startSize=20;horizontal=0;" vertex="1" parent="JW_ZT9TwwhXl2gYUWcVb-1">
          <mxGeometry y="20" width="3080" height="360" as="geometry" />
        </mxCell>
        <mxCell id="JW_ZT9TwwhXl2gYUWcVb-7" style="edgeStyle=orthogonalEdgeStyle;rounded=0;orthogonalLoop=1;jettySize=auto;html=1;" edge="1" parent="JW_ZT9TwwhXl2gYUWcVb-2" source="JW_ZT9TwwhXl2gYUWcVb-5" target="JW_ZT9TwwhXl2gYUWcVb-6">
          <mxGeometry relative="1" as="geometry" />
        </mxCell>
        <mxCell id="JW_ZT9TwwhXl2gYUWcVb-5" value="Inicio" style="points=[[0.145,0.145,0],[0.5,0,0],[0.855,0.145,0],[1,0.5,0],[0.855,0.855,0],[0.5,1,0],[0.145,0.855,0],[0,0.5,0]];shape=mxgraph.bpmn.event;html=1;verticalLabelPosition=bottom;labelBackgroundColor=#ffffff;verticalAlign=top;align=center;perimeter=ellipsePerimeter;outlineConnect=0;aspect=fixed;outline=standard;symbol=general;fillColor=#f8cecc;strokeColor=#b85450;" vertex="1" parent="JW_ZT9TwwhXl2gYUWcVb-2">
          <mxGeometry x="50" y="75" width="50" height="50" as="geometry" />
        </mxCell>
        <mxCell id="JW_ZT9TwwhXl2gYUWcVb-8" style="edgeStyle=orthogonalEdgeStyle;rounded=0;orthogonalLoop=1;jettySize=auto;html=1;" edge="1" parent="JW_ZT9TwwhXl2gYUWcVb-2" source="JW_ZT9TwwhXl2gYUWcVb-6" target="JW_ZT9TwwhXl2gYUWcVb-9">
          <mxGeometry relative="1" as="geometry">
            <mxPoint x="290" y="100" as="targetPoint" />
          </mxGeometry>
        </mxCell>
        <mxCell id="JW_ZT9TwwhXl2gYUWcVb-6" value="Ingresar a ZonaSer Prestador" style="points=[[0.25,0,0],[0.5,0,0],[0.75,0,0],[1,0.25,0],[1,0.5,0],[1,0.75,0],[0.75,1,0],[0.5,1,0],[0.25,1,0],[0,0.75,0],[0,0.5,0],[0,0.25,0]];shape=mxgraph.bpmn.task2;whiteSpace=wrap;rectStyle=rounded;size=10;html=1;container=1;expand=0;collapsible=0;taskMarker=user;fillColor=#fff2cc;strokeColor=#d6b656;" vertex="1" parent="JW_ZT9TwwhXl2gYUWcVb-2">
          <mxGeometry x="130" y="60" width="120" height="80" as="geometry" />
        </mxCell>
        <UserObject label="Identificar prestador red o no red" link="https://app.diagrams.net/#Hkevinjporto%2FDiagramas-de-procesos%2Fmain%2FVisualizar%20servicios%20en%20ZSS%20para%20prestadores%20con%20marca%20en%20eter.drawio#%7B%22pageId%22%3A%22TRl0oPyITWr-6Asu_PwD%22%7D" linkTarget="_blank" id="JW_ZT9TwwhXl2gYUWcVb-9">
          <mxCell style="points=[[0.25,0,0],[0.5,0,0],[0.75,0,0],[1,0.25,0],[1,0.5,0],[1,0.75,0],[0.75,1,0],[0.5,1,0],[0.25,1,0],[0,0.75,0],[0,0.5,0],[0,0.25,0]];shape=mxgraph.bpmn.task2;whiteSpace=wrap;rectStyle=rounded;size=10;html=1;container=1;expand=0;collapsible=0;taskMarker=abstract;isLoopSub=1;fillColor=#fff2cc;strokeColor=#d6b656;" vertex="1" parent="JW_ZT9TwwhXl2gYUWcVb-2">
            <mxGeometry x="280" y="60" width="120" height="80" as="geometry" />
          </mxCell>
        </UserObject>
        <mxCell id="JW_ZT9TwwhXl2gYUWcVb-13" value="Diligenciar formulario Solicitud de Servicio" style="points=[[0.25,0,0],[0.5,0,0],[0.75,0,0],[1,0.25,0],[1,0.5,0],[1,0.75,0],[0.75,1,0],[0.5,1,0],[0.25,1,0],[0,0.75,0],[0,0.5,0],[0,0.25,0]];shape=mxgraph.bpmn.task2;whiteSpace=wrap;rectStyle=rounded;size=10;html=1;container=1;expand=0;collapsible=0;taskMarker=user;fillColor=#fff2cc;strokeColor=#d6b656;" vertex="1" parent="JW_ZT9TwwhXl2gYUWcVb-2">
          <mxGeometry x="430" y="60" width="120" height="80" as="geometry" />
        </mxCell>
        <mxCell id="JW_ZT9TwwhXl2gYUWcVb-10" style="edgeStyle=orthogonalEdgeStyle;rounded=0;orthogonalLoop=1;jettySize=auto;html=1;" edge="1" parent="JW_ZT9TwwhXl2gYUWcVb-2" source="JW_ZT9TwwhXl2gYUWcVb-9" target="JW_ZT9TwwhXl2gYUWcVb-13">
          <mxGeometry relative="1" as="geometry">
            <mxPoint x="430" y="100" as="targetPoint" />
          </mxGeometry>
        </mxCell>
        <mxCell id="JW_ZT9TwwhXl2gYUWcVb-14" style="edgeStyle=orthogonalEdgeStyle;rounded=0;orthogonalLoop=1;jettySize=auto;html=1;" edge="1" parent="JW_ZT9TwwhXl2gYUWcVb-2" source="JW_ZT9TwwhXl2gYUWcVb-13" target="JW_ZT9TwwhXl2gYUWcVb-16">
          <mxGeometry relative="1" as="geometry">
            <mxPoint x="580" y="100" as="targetPoint" />
          </mxGeometry>
        </mxCell>
        <mxCell id="JW_ZT9TwwhXl2gYUWcVb-18" style="edgeStyle=orthogonalEdgeStyle;rounded=0;orthogonalLoop=1;jettySize=auto;html=1;" edge="1" parent="JW_ZT9TwwhXl2gYUWcVb-2" source="JW_ZT9TwwhXl2gYUWcVb-16" target="JW_ZT9TwwhXl2gYUWcVb-17">
          <mxGeometry relative="1" as="geometry" />
        </mxCell>
        <UserObject label="Validar tecnología contratada en cápita o pgp" link="https://app.diagrams.net/#Hkevinjporto%2FDiagramas-de-procesos%2Fmain%2FValidar%20tecnologia%20contratada%20en%20capita%20o%20pgp.drawio#%7B%22pageId%22%3A%22vuPgtb5DDe-6d6AMIZnv%22%7D" id="JW_ZT9TwwhXl2gYUWcVb-16">
          <mxCell style="points=[[0.25,0,0],[0.5,0,0],[0.75,0,0],[1,0.25,0],[1,0.5,0],[1,0.75,0],[0.75,1,0],[0.5,1,0],[0.25,1,0],[0,0.75,0],[0,0.5,0],[0,0.25,0]];shape=mxgraph.bpmn.task2;whiteSpace=wrap;rectStyle=rounded;size=10;html=1;container=1;expand=0;collapsible=0;taskMarker=abstract;isLoopSub=1;fillColor=#fff2cc;strokeColor=#d6b656;" vertex="1" parent="JW_ZT9TwwhXl2gYUWcVb-2">
            <mxGeometry x="580" y="60" width="120" height="80" as="geometry" />
          </mxCell>
        </UserObject>
        <mxCell id="JW_ZT9TwwhXl2gYUWcVb-82" style="edgeStyle=orthogonalEdgeStyle;rounded=0;orthogonalLoop=1;jettySize=auto;html=1;entryX=0;entryY=0.5;entryDx=0;entryDy=0;entryPerimeter=0;" edge="1" parent="JW_ZT9TwwhXl2gYUWcVb-2" source="JW_ZT9TwwhXl2gYUWcVb-17" target="JW_ZT9TwwhXl2gYUWcVb-83">
          <mxGeometry relative="1" as="geometry">
            <mxPoint x="830" y="100" as="targetPoint" />
          </mxGeometry>
        </mxCell>
        <mxCell id="JW_ZT9TwwhXl2gYUWcVb-17" value="Clic &quot;Guardar&quot;" style="points=[[0.145,0.145,0],[0.5,0,0],[0.855,0.145,0],[1,0.5,0],[0.855,0.855,0],[0.5,1,0],[0.145,0.855,0],[0,0.5,0]];shape=mxgraph.bpmn.event;html=1;verticalLabelPosition=bottom;labelBackgroundColor=#ffffff;verticalAlign=top;align=center;perimeter=ellipsePerimeter;outlineConnect=0;aspect=fixed;outline=catching;symbol=signal;fillColor=#f5f5f5;strokeColor=#666666;fontColor=#333333;fontSize=10;" vertex="1" parent="JW_ZT9TwwhXl2gYUWcVb-2">
          <mxGeometry x="740" y="75" width="50" height="50" as="geometry" />
        </mxCell>
        <mxCell id="JW_ZT9TwwhXl2gYUWcVb-32" style="edgeStyle=orthogonalEdgeStyle;rounded=0;orthogonalLoop=1;jettySize=auto;html=1;fontSize=10;exitX=1;exitY=0.5;exitDx=0;exitDy=0;exitPerimeter=0;" edge="1" parent="JW_ZT9TwwhXl2gYUWcVb-2" source="JW_ZT9TwwhXl2gYUWcVb-84" target="JW_ZT9TwwhXl2gYUWcVb-38">
          <mxGeometry relative="1" as="geometry">
            <mxPoint x="1260" y="100" as="targetPoint" />
            <mxPoint x="1340" y="100" as="sourcePoint" />
          </mxGeometry>
        </mxCell>
        <mxCell id="JW_ZT9TwwhXl2gYUWcVb-35" value="A3&lt;br&gt;PENDIENTE" style="edgeLabel;html=1;align=center;verticalAlign=middle;resizable=0;points=[];fontSize=10;" vertex="1" connectable="0" parent="JW_ZT9TwwhXl2gYUWcVb-32">
          <mxGeometry x="-0.1045" y="1" relative="1" as="geometry">
            <mxPoint as="offset" />
          </mxGeometry>
        </mxCell>
        <mxCell id="JW_ZT9TwwhXl2gYUWcVb-38" value="Aprobar A3 Manual" style="points=[[0.25,0,0],[0.5,0,0],[0.75,0,0],[1,0.25,0],[1,0.5,0],[1,0.75,0],[0.75,1,0],[0.5,1,0],[0.25,1,0],[0,0.75,0],[0,0.5,0],[0,0.25,0]];shape=mxgraph.bpmn.task2;whiteSpace=wrap;rectStyle=rounded;size=10;html=1;container=1;expand=0;collapsible=0;taskMarker=user;fillColor=#fff2cc;strokeColor=#d6b656;" vertex="1" parent="JW_ZT9TwwhXl2gYUWcVb-2">
          <mxGeometry x="1180" y="60" width="120" height="80" as="geometry" />
        </mxCell>
        <mxCell id="JW_ZT9TwwhXl2gYUWcVb-39" value="Aprobación automática&amp;nbsp;" style="points=[[0.25,0,0],[0.5,0,0],[0.75,0,0],[1,0.25,0],[1,0.5,0],[1,0.75,0],[0.75,1,0],[0.5,1,0],[0.25,1,0],[0,0.75,0],[0,0.5,0],[0,0.25,0]];shape=mxgraph.bpmn.task2;whiteSpace=wrap;rectStyle=rounded;size=10;html=1;container=1;expand=0;collapsible=0;taskMarker=script;fillColor=#fff2cc;strokeColor=#d6b656;" vertex="1" parent="JW_ZT9TwwhXl2gYUWcVb-2">
          <mxGeometry x="1180" y="210" width="120" height="80" as="geometry" />
        </mxCell>
        <mxCell id="JW_ZT9TwwhXl2gYUWcVb-41" value="Clic &lt;br&gt;Confirmación A3" style="points=[[0.145,0.145,0],[0.5,0,0],[0.855,0.145,0],[1,0.5,0],[0.855,0.855,0],[0.5,1,0],[0.145,0.855,0],[0,0.5,0]];shape=mxgraph.bpmn.event;html=1;verticalLabelPosition=bottom;labelBackgroundColor=#ffffff;verticalAlign=top;align=center;perimeter=ellipsePerimeter;outlineConnect=0;aspect=fixed;outline=catching;symbol=signal;fillColor=#f5f5f5;fontColor=#333333;strokeColor=#666666;fontSize=10;" vertex="1" parent="JW_ZT9TwwhXl2gYUWcVb-2">
          <mxGeometry x="1350" y="75" width="50" height="50" as="geometry" />
        </mxCell>
        <mxCell id="JW_ZT9TwwhXl2gYUWcVb-40" style="edgeStyle=orthogonalEdgeStyle;rounded=0;orthogonalLoop=1;jettySize=auto;html=1;" edge="1" parent="JW_ZT9TwwhXl2gYUWcVb-2" source="JW_ZT9TwwhXl2gYUWcVb-38" target="JW_ZT9TwwhXl2gYUWcVb-41">
          <mxGeometry relative="1" as="geometry">
            <mxPoint x="1470" y="100" as="targetPoint" />
          </mxGeometry>
        </mxCell>
        <mxCell id="JW_ZT9TwwhXl2gYUWcVb-43" value="¿A3 Ambulatorio &lt;br&gt;u Hospitalario?" style="points=[[0.25,0.25,0],[0.5,0,0],[0.75,0.25,0],[1,0.5,0],[0.75,0.75,0],[0.5,1,0],[0.25,0.75,0],[0,0.5,0]];shape=mxgraph.bpmn.gateway2;html=1;verticalLabelPosition=top;labelBackgroundColor=#ffffff;verticalAlign=bottom;align=center;perimeter=rhombusPerimeter;outlineConnect=0;outline=none;symbol=none;fillColor=#d5e8d4;strokeColor=#82b366;fontSize=10;labelPosition=center;" vertex="1" parent="JW_ZT9TwwhXl2gYUWcVb-2">
          <mxGeometry x="1360" y="225" width="50" height="50" as="geometry" />
        </mxCell>
        <mxCell id="JW_ZT9TwwhXl2gYUWcVb-42" style="edgeStyle=orthogonalEdgeStyle;rounded=0;orthogonalLoop=1;jettySize=auto;html=1;" edge="1" parent="JW_ZT9TwwhXl2gYUWcVb-2" source="JW_ZT9TwwhXl2gYUWcVb-39" target="JW_ZT9TwwhXl2gYUWcVb-43">
          <mxGeometry relative="1" as="geometry">
            <mxPoint x="1480" y="225" as="targetPoint" />
          </mxGeometry>
        </mxCell>
        <mxCell id="JW_ZT9TwwhXl2gYUWcVb-47" value="Mostrar mensaje error" style="points=[[0.25,0,0],[0.5,0,0],[0.75,0,0],[1,0.25,0],[1,0.5,0],[1,0.75,0],[0.75,1,0],[0.5,1,0],[0.25,1,0],[0,0.75,0],[0,0.5,0],[0,0.25,0]];shape=mxgraph.bpmn.task2;whiteSpace=wrap;rectStyle=rounded;size=10;html=1;container=1;expand=0;collapsible=0;taskMarker=send;fillColor=#fff2cc;strokeColor=#d6b656;" vertex="1" parent="JW_ZT9TwwhXl2gYUWcVb-2">
          <mxGeometry x="1590" y="10" width="120" height="80" as="geometry" />
        </mxCell>
        <mxCell id="JW_ZT9TwwhXl2gYUWcVb-50" value="Aprobar A3 y cambiar estado a APROBADO" style="points=[[0.25,0,0],[0.5,0,0],[0.75,0,0],[1,0.25,0],[1,0.5,0],[1,0.75,0],[0.75,1,0],[0.5,1,0],[0.25,1,0],[0,0.75,0],[0,0.5,0],[0,0.25,0]];shape=mxgraph.bpmn.task2;whiteSpace=wrap;rectStyle=rounded;size=10;html=1;container=1;expand=0;collapsible=0;taskMarker=script;fillColor=#fff2cc;strokeColor=#d6b656;" vertex="1" parent="JW_ZT9TwwhXl2gYUWcVb-2">
          <mxGeometry x="1590" y="120" width="120" height="80" as="geometry" />
        </mxCell>
        <mxCell id="JW_ZT9TwwhXl2gYUWcVb-49" value="Fin" style="points=[[0.145,0.145,0],[0.5,0,0],[0.855,0.145,0],[1,0.5,0],[0.855,0.855,0],[0.5,1,0],[0.145,0.855,0],[0,0.5,0]];shape=mxgraph.bpmn.event;html=1;verticalLabelPosition=bottom;labelBackgroundColor=#ffffff;verticalAlign=top;align=center;perimeter=ellipsePerimeter;outlineConnect=0;aspect=fixed;outline=end;symbol=terminate2;fillColor=#f8cecc;strokeColor=#b85450;" vertex="1" parent="JW_ZT9TwwhXl2gYUWcVb-2">
          <mxGeometry x="1750" y="25" width="50" height="50" as="geometry" />
        </mxCell>
        <mxCell id="JW_ZT9TwwhXl2gYUWcVb-48" style="edgeStyle=orthogonalEdgeStyle;rounded=0;orthogonalLoop=1;jettySize=auto;html=1;" edge="1" parent="JW_ZT9TwwhXl2gYUWcVb-2" source="JW_ZT9TwwhXl2gYUWcVb-47" target="JW_ZT9TwwhXl2gYUWcVb-49">
          <mxGeometry relative="1" as="geometry">
            <mxPoint x="1810" y="50" as="targetPoint" />
          </mxGeometry>
        </mxCell>
        <mxCell id="JW_ZT9TwwhXl2gYUWcVb-76" value="Inicio" style="points=[[0.145,0.145,0],[0.5,0,0],[0.855,0.145,0],[1,0.5,0],[0.855,0.855,0],[0.5,1,0],[0.145,0.855,0],[0,0.5,0]];shape=mxgraph.bpmn.event;html=1;verticalLabelPosition=bottom;labelBackgroundColor=#ffffff;verticalAlign=top;align=center;perimeter=ellipsePerimeter;outlineConnect=0;aspect=fixed;outline=standard;symbol=general;fillColor=#f8cecc;strokeColor=#b85450;" vertex="1" parent="JW_ZT9TwwhXl2gYUWcVb-2">
          <mxGeometry x="2040" y="25" width="50" height="50" as="geometry" />
        </mxCell>
        <mxCell id="JW_ZT9TwwhXl2gYUWcVb-45" value="¿Rol autorizado?" style="points=[[0.25,0.25,0],[0.5,0,0],[0.75,0.25,0],[1,0.5,0],[0.75,0.75,0],[0.5,1,0],[0.25,0.75,0],[0,0.5,0]];shape=mxgraph.bpmn.gateway2;html=1;verticalLabelPosition=bottom;labelBackgroundColor=#ffffff;verticalAlign=top;align=center;perimeter=rhombusPerimeter;outlineConnect=0;outline=none;symbol=none;fillColor=#d5e8d4;strokeColor=#82b366;fontSize=10;labelPosition=center;" vertex="1" parent="JW_ZT9TwwhXl2gYUWcVb-2">
          <mxGeometry x="1450" y="75" width="50" height="50" as="geometry" />
        </mxCell>
        <mxCell id="JW_ZT9TwwhXl2gYUWcVb-46" style="edgeStyle=orthogonalEdgeStyle;rounded=0;orthogonalLoop=1;jettySize=auto;html=1;" edge="1" parent="JW_ZT9TwwhXl2gYUWcVb-2" source="JW_ZT9TwwhXl2gYUWcVb-45" target="JW_ZT9TwwhXl2gYUWcVb-47">
          <mxGeometry relative="1" as="geometry">
            <mxPoint x="1670" y="40" as="targetPoint" />
          </mxGeometry>
        </mxCell>
        <mxCell id="JW_ZT9TwwhXl2gYUWcVb-44" style="edgeStyle=orthogonalEdgeStyle;rounded=0;orthogonalLoop=1;jettySize=auto;html=1;" edge="1" parent="JW_ZT9TwwhXl2gYUWcVb-2" source="JW_ZT9TwwhXl2gYUWcVb-41" target="JW_ZT9TwwhXl2gYUWcVb-45">
          <mxGeometry relative="1" as="geometry">
            <mxPoint x="1550" y="100" as="targetPoint" />
          </mxGeometry>
        </mxCell>
        <mxCell id="JW_ZT9TwwhXl2gYUWcVb-51" style="edgeStyle=orthogonalEdgeStyle;rounded=0;orthogonalLoop=1;jettySize=auto;html=1;entryX=0;entryY=0.5;entryDx=0;entryDy=0;entryPerimeter=0;" edge="1" parent="JW_ZT9TwwhXl2gYUWcVb-2" source="JW_ZT9TwwhXl2gYUWcVb-45" target="JW_ZT9TwwhXl2gYUWcVb-50">
          <mxGeometry relative="1" as="geometry" />
        </mxCell>
        <mxCell id="JW_ZT9TwwhXl2gYUWcVb-85" style="edgeStyle=orthogonalEdgeStyle;rounded=0;orthogonalLoop=1;jettySize=auto;html=1;" edge="1" parent="JW_ZT9TwwhXl2gYUWcVb-2" source="JW_ZT9TwwhXl2gYUWcVb-83" target="JW_ZT9TwwhXl2gYUWcVb-84">
          <mxGeometry relative="1" as="geometry" />
        </mxCell>
        <UserObject label="Validar creación A3 automatico" link="https://app.diagrams.net/#Hkevinjporto%2FDiagramas-de-procesos%2Fmain%2FValidar%20condiciones%20para%20crear%20A3%20automatico.drawio#%7B%22pageId%22%3A%22XB4Z8zkzqnux2oW8rPwN%22%7D" id="JW_ZT9TwwhXl2gYUWcVb-83">
          <mxCell style="points=[[0.25,0,0],[0.5,0,0],[0.75,0,0],[1,0.25,0],[1,0.5,0],[1,0.75,0],[0.75,1,0],[0.5,1,0],[0.25,1,0],[0,0.75,0],[0,0.5,0],[0,0.25,0]];shape=mxgraph.bpmn.task2;whiteSpace=wrap;rectStyle=rounded;size=10;html=1;container=1;expand=0;collapsible=0;taskMarker=abstract;isLoopSub=1;fillColor=#fff2cc;strokeColor=#d6b656;" vertex="1" parent="JW_ZT9TwwhXl2gYUWcVb-2">
            <mxGeometry x="840" y="60" width="120" height="80" as="geometry" />
          </mxCell>
        </UserObject>
        <mxCell id="JW_ZT9TwwhXl2gYUWcVb-84" value="¿Cumple &lt;br&gt;validaciones?" style="points=[[0.25,0.25,0],[0.5,0,0],[0.75,0.25,0],[1,0.5,0],[0.75,0.75,0],[0.5,1,0],[0.25,0.75,0],[0,0.5,0]];shape=mxgraph.bpmn.gateway2;html=1;verticalLabelPosition=top;labelBackgroundColor=#ffffff;verticalAlign=bottom;align=center;perimeter=rhombusPerimeter;outlineConnect=0;outline=none;symbol=none;fillColor=#d5e8d4;strokeColor=#82b366;labelPosition=center;fontSize=10;" vertex="1" parent="JW_ZT9TwwhXl2gYUWcVb-2">
          <mxGeometry x="1010" y="75" width="50" height="50" as="geometry" />
        </mxCell>
        <mxCell id="JW_ZT9TwwhXl2gYUWcVb-86" style="edgeStyle=orthogonalEdgeStyle;rounded=0;orthogonalLoop=1;jettySize=auto;html=1;entryX=0;entryY=0.5;entryDx=0;entryDy=0;entryPerimeter=0;" edge="1" parent="JW_ZT9TwwhXl2gYUWcVb-2" source="JW_ZT9TwwhXl2gYUWcVb-84" target="JW_ZT9TwwhXl2gYUWcVb-39">
          <mxGeometry relative="1" as="geometry">
            <Array as="points">
              <mxPoint x="1035" y="250" />
            </Array>
          </mxGeometry>
        </mxCell>
        <mxCell id="JW_ZT9TwwhXl2gYUWcVb-87" value="A3 &lt;br&gt;AUTOMATICO" style="edgeLabel;html=1;align=center;verticalAlign=middle;resizable=0;points=[];fontSize=10;" vertex="1" connectable="0" parent="JW_ZT9TwwhXl2gYUWcVb-86">
          <mxGeometry x="0.2741" relative="1" as="geometry">
            <mxPoint x="18" as="offset" />
          </mxGeometry>
        </mxCell>
        <mxCell id="JW_ZT9TwwhXl2gYUWcVb-3" value="OASIS" style="swimlane;html=1;startSize=20;horizontal=0;" vertex="1" parent="JW_ZT9TwwhXl2gYUWcVb-1">
          <mxGeometry y="380" width="3080" height="250" as="geometry" />
        </mxCell>
        <mxCell id="JW_ZT9TwwhXl2gYUWcVb-53" value="Generar AS PROCESADO" style="points=[[0.25,0,0],[0.5,0,0],[0.75,0,0],[1,0.25,0],[1,0.5,0],[1,0.75,0],[0.75,1,0],[0.5,1,0],[0.25,1,0],[0,0.75,0],[0,0.5,0],[0,0.25,0]];shape=mxgraph.bpmn.task2;whiteSpace=wrap;rectStyle=rounded;size=10;html=1;container=1;expand=0;collapsible=0;taskMarker=script;fillColor=#fff2cc;strokeColor=#d6b656;" vertex="1" parent="JW_ZT9TwwhXl2gYUWcVb-3">
          <mxGeometry x="1630" y="30" width="120" height="80" as="geometry" />
        </mxCell>
        <mxCell id="JW_ZT9TwwhXl2gYUWcVb-56" style="edgeStyle=orthogonalEdgeStyle;rounded=0;orthogonalLoop=1;jettySize=auto;html=1;" edge="1" parent="JW_ZT9TwwhXl2gYUWcVb-3" source="JW_ZT9TwwhXl2gYUWcVb-54" target="JW_ZT9TwwhXl2gYUWcVb-53">
          <mxGeometry relative="1" as="geometry" />
        </mxCell>
        <mxCell id="JW_ZT9TwwhXl2gYUWcVb-54" value="" style="points=[[0.25,0.25,0],[0.5,0,0],[0.75,0.25,0],[1,0.5,0],[0.75,0.75,0],[0.5,1,0],[0.25,0.75,0],[0,0.5,0]];shape=mxgraph.bpmn.gateway2;html=1;verticalLabelPosition=bottom;labelBackgroundColor=#ffffff;verticalAlign=top;align=center;perimeter=rhombusPerimeter;outlineConnect=0;outline=end;symbol=general;fillColor=#d5e8d4;strokeColor=#82b366;" vertex="1" parent="JW_ZT9TwwhXl2gYUWcVb-3">
          <mxGeometry x="1530" y="45" width="50" height="50" as="geometry" />
        </mxCell>
        <mxCell id="JW_ZT9TwwhXl2gYUWcVb-60" value="Generar reserva técnica" style="points=[[0.25,0,0],[0.5,0,0],[0.75,0,0],[1,0.25,0],[1,0.5,0],[1,0.75,0],[0.75,1,0],[0.5,1,0],[0.25,1,0],[0,0.75,0],[0,0.5,0],[0,0.25,0]];shape=mxgraph.bpmn.task2;whiteSpace=wrap;rectStyle=rounded;size=10;html=1;container=1;expand=0;collapsible=0;taskMarker=script;fillColor=#fff2cc;strokeColor=#d6b656;" vertex="1" parent="JW_ZT9TwwhXl2gYUWcVb-3">
          <mxGeometry x="1790" y="30" width="120" height="80" as="geometry" />
        </mxCell>
        <mxCell id="JW_ZT9TwwhXl2gYUWcVb-59" style="edgeStyle=orthogonalEdgeStyle;rounded=0;orthogonalLoop=1;jettySize=auto;html=1;" edge="1" parent="JW_ZT9TwwhXl2gYUWcVb-3" source="JW_ZT9TwwhXl2gYUWcVb-53" target="JW_ZT9TwwhXl2gYUWcVb-60">
          <mxGeometry relative="1" as="geometry">
            <mxPoint x="2050" y="70" as="targetPoint" />
          </mxGeometry>
        </mxCell>
        <mxCell id="JW_ZT9TwwhXl2gYUWcVb-75" value="Fin" style="points=[[0.145,0.145,0],[0.5,0,0],[0.855,0.145,0],[1,0.5,0],[0.855,0.855,0],[0.5,1,0],[0.145,0.855,0],[0,0.5,0]];shape=mxgraph.bpmn.event;html=1;verticalLabelPosition=bottom;labelBackgroundColor=#ffffff;verticalAlign=top;align=center;perimeter=ellipsePerimeter;outlineConnect=0;aspect=fixed;outline=end;symbol=terminate2;fillColor=#f8cecc;strokeColor=#b85450;" vertex="1" parent="JW_ZT9TwwhXl2gYUWcVb-3">
          <mxGeometry x="1950" y="45" width="50" height="50" as="geometry" />
        </mxCell>
        <mxCell id="JW_ZT9TwwhXl2gYUWcVb-74" style="edgeStyle=orthogonalEdgeStyle;rounded=0;orthogonalLoop=1;jettySize=auto;html=1;" edge="1" parent="JW_ZT9TwwhXl2gYUWcVb-3" source="JW_ZT9TwwhXl2gYUWcVb-60" target="JW_ZT9TwwhXl2gYUWcVb-75">
          <mxGeometry relative="1" as="geometry">
            <mxPoint x="2210" y="70" as="targetPoint" />
          </mxGeometry>
        </mxCell>
        <mxCell id="JW_ZT9TwwhXl2gYUWcVb-4" value="Concurrencia" style="swimlane;html=1;startSize=20;horizontal=0;" vertex="1" parent="JW_ZT9TwwhXl2gYUWcVb-1">
          <mxGeometry y="630" width="3080" height="280" as="geometry" />
        </mxCell>
        <mxCell id="JW_ZT9TwwhXl2gYUWcVb-62" value="Crear formato de concurrencia en estado ABIERTO" style="points=[[0.25,0,0],[0.5,0,0],[0.75,0,0],[1,0.25,0],[1,0.5,0],[1,0.75,0],[0.75,1,0],[0.5,1,0],[0.25,1,0],[0,0.75,0],[0,0.5,0],[0,0.25,0]];shape=mxgraph.bpmn.task2;whiteSpace=wrap;rectStyle=rounded;size=10;html=1;container=1;expand=0;collapsible=0;taskMarker=script;fillColor=#fff2cc;strokeColor=#d6b656;" vertex="1" parent="JW_ZT9TwwhXl2gYUWcVb-4">
          <mxGeometry x="1560" y="40" width="120" height="80" as="geometry" />
        </mxCell>
        <mxCell id="JW_ZT9TwwhXl2gYUWcVb-66" style="edgeStyle=orthogonalEdgeStyle;rounded=0;orthogonalLoop=1;jettySize=auto;html=1;" edge="1" parent="JW_ZT9TwwhXl2gYUWcVb-4" source="JW_ZT9TwwhXl2gYUWcVb-63" target="JW_ZT9TwwhXl2gYUWcVb-62">
          <mxGeometry relative="1" as="geometry" />
        </mxCell>
        <mxCell id="JW_ZT9TwwhXl2gYUWcVb-67" value="SI" style="edgeLabel;html=1;align=center;verticalAlign=middle;resizable=0;points=[];" vertex="1" connectable="0" parent="JW_ZT9TwwhXl2gYUWcVb-66">
          <mxGeometry x="-0.1333" y="1" relative="1" as="geometry">
            <mxPoint as="offset" />
          </mxGeometry>
        </mxCell>
        <mxCell id="JW_ZT9TwwhXl2gYUWcVb-63" value="¿Prestador genera &lt;br&gt;formato de &lt;br&gt;concurrencia automático?" style="points=[[0.25,0.25,0],[0.5,0,0],[0.75,0.25,0],[1,0.5,0],[0.75,0.75,0],[0.5,1,0],[0.25,0.75,0],[0,0.5,0]];shape=mxgraph.bpmn.gateway2;html=1;verticalLabelPosition=top;labelBackgroundColor=#ffffff;verticalAlign=bottom;align=center;perimeter=rhombusPerimeter;outlineConnect=0;outline=none;symbol=none;fontSize=10;fillColor=#d5e8d4;strokeColor=#82b366;labelPosition=center;" vertex="1" parent="JW_ZT9TwwhXl2gYUWcVb-4">
          <mxGeometry x="1450" y="55" width="50" height="50" as="geometry" />
        </mxCell>
        <mxCell id="JW_ZT9TwwhXl2gYUWcVb-71" value="" style="points=[[0.145,0.145,0],[0.5,0,0],[0.855,0.145,0],[1,0.5,0],[0.855,0.855,0],[0.5,1,0],[0.145,0.855,0],[0,0.5,0]];shape=mxgraph.bpmn.event;html=1;verticalLabelPosition=bottom;labelBackgroundColor=#ffffff;verticalAlign=top;align=center;perimeter=ellipsePerimeter;outlineConnect=0;aspect=fixed;outline=end;symbol=terminate2;fillColor=#f8cecc;strokeColor=#b85450;" vertex="1" parent="JW_ZT9TwwhXl2gYUWcVb-4">
          <mxGeometry x="1580" y="165" width="50" height="50" as="geometry" />
        </mxCell>
        <mxCell id="JW_ZT9TwwhXl2gYUWcVb-69" value="No generar formato de concurrencia" style="points=[[0.25,0,0],[0.5,0,0],[0.75,0,0],[1,0.25,0],[1,0.5,0],[1,0.75,0],[0.75,1,0],[0.5,1,0],[0.25,1,0],[0,0.75,0],[0,0.5,0],[0,0.25,0]];shape=mxgraph.bpmn.task2;whiteSpace=wrap;rectStyle=rounded;size=10;html=1;container=1;expand=0;collapsible=0;taskMarker=script;fillColor=#fff2cc;strokeColor=#d6b656;" vertex="1" parent="JW_ZT9TwwhXl2gYUWcVb-4">
          <mxGeometry x="1415" y="150" width="120" height="80" as="geometry" />
        </mxCell>
        <mxCell id="JW_ZT9TwwhXl2gYUWcVb-68" style="edgeStyle=orthogonalEdgeStyle;rounded=0;orthogonalLoop=1;jettySize=auto;html=1;" edge="1" parent="JW_ZT9TwwhXl2gYUWcVb-4" source="JW_ZT9TwwhXl2gYUWcVb-63" target="JW_ZT9TwwhXl2gYUWcVb-69">
          <mxGeometry relative="1" as="geometry">
            <mxPoint x="1475" y="175" as="targetPoint" />
          </mxGeometry>
        </mxCell>
        <mxCell id="JW_ZT9TwwhXl2gYUWcVb-70" style="edgeStyle=orthogonalEdgeStyle;rounded=0;orthogonalLoop=1;jettySize=auto;html=1;" edge="1" parent="JW_ZT9TwwhXl2gYUWcVb-4" source="JW_ZT9TwwhXl2gYUWcVb-69" target="JW_ZT9TwwhXl2gYUWcVb-71">
          <mxGeometry relative="1" as="geometry">
            <mxPoint x="1580" y="175" as="targetPoint" />
          </mxGeometry>
        </mxCell>
        <mxCell id="JW_ZT9TwwhXl2gYUWcVb-73" value="Habilitar formato para edición: concurrencia, egreso, objeciones y notificaciones" style="points=[[0.25,0,0],[0.5,0,0],[0.75,0,0],[1,0.25,0],[1,0.5,0],[1,0.75,0],[0.75,1,0],[0.5,1,0],[0.25,1,0],[0,0.75,0],[0,0.5,0],[0,0.25,0]];shape=mxgraph.bpmn.task2;whiteSpace=wrap;rectStyle=rounded;size=10;html=1;container=1;expand=0;collapsible=0;taskMarker=script;fillColor=#fff2cc;strokeColor=#d6b656;" vertex="1" parent="JW_ZT9TwwhXl2gYUWcVb-4">
          <mxGeometry x="1720" y="40" width="120" height="80" as="geometry" />
        </mxCell>
        <mxCell id="JW_ZT9TwwhXl2gYUWcVb-72" style="edgeStyle=orthogonalEdgeStyle;rounded=0;orthogonalLoop=1;jettySize=auto;html=1;" edge="1" parent="JW_ZT9TwwhXl2gYUWcVb-4" source="JW_ZT9TwwhXl2gYUWcVb-62" target="JW_ZT9TwwhXl2gYUWcVb-73">
          <mxGeometry relative="1" as="geometry">
            <mxPoint x="1730" y="80" as="targetPoint" />
          </mxGeometry>
        </mxCell>
        <mxCell id="JW_ZT9TwwhXl2gYUWcVb-55" style="edgeStyle=orthogonalEdgeStyle;rounded=0;orthogonalLoop=1;jettySize=auto;html=1;" edge="1" parent="JW_ZT9TwwhXl2gYUWcVb-1" source="JW_ZT9TwwhXl2gYUWcVb-43" target="JW_ZT9TwwhXl2gYUWcVb-54">
          <mxGeometry relative="1" as="geometry">
            <Array as="points">
              <mxPoint x="1490" y="270" />
              <mxPoint x="1490" y="450" />
            </Array>
          </mxGeometry>
        </mxCell>
        <mxCell id="JW_ZT9TwwhXl2gYUWcVb-57" value="Ambulatorio" style="edgeLabel;html=1;align=center;verticalAlign=middle;resizable=0;points=[];" vertex="1" connectable="0" parent="JW_ZT9TwwhXl2gYUWcVb-55">
          <mxGeometry x="-0.2333" relative="1" as="geometry">
            <mxPoint x="-30" y="-35" as="offset" />
          </mxGeometry>
        </mxCell>
        <mxCell id="JW_ZT9TwwhXl2gYUWcVb-77" style="edgeStyle=orthogonalEdgeStyle;rounded=0;orthogonalLoop=1;jettySize=auto;html=1;entryX=0;entryY=0.5;entryDx=0;entryDy=0;entryPerimeter=0;" edge="1" parent="JW_ZT9TwwhXl2gYUWcVb-1" source="JW_ZT9TwwhXl2gYUWcVb-43" target="JW_ZT9TwwhXl2gYUWcVb-63">
          <mxGeometry relative="1" as="geometry">
            <Array as="points">
              <mxPoint x="1385" y="710" />
            </Array>
          </mxGeometry>
        </mxCell>
        <mxCell id="JW_ZT9TwwhXl2gYUWcVb-88" style="edgeStyle=orthogonalEdgeStyle;rounded=0;orthogonalLoop=1;jettySize=auto;html=1;" edge="1" parent="JW_ZT9TwwhXl2gYUWcVb-1" source="JW_ZT9TwwhXl2gYUWcVb-50" target="JW_ZT9TwwhXl2gYUWcVb-54">
          <mxGeometry relative="1" as="geometry">
            <Array as="points">
              <mxPoint x="1650" y="290" />
              <mxPoint x="1555" y="290" />
            </Array>
          </mxGeometry>
        </mxCell>
      </root>
    </mxGraphModel>
  </diagram>
</mxfile>
